# This file uses centimeters as units for non-parametric coordinates.

mtllib Bush_2_Grass.mtl
g default
v -0.287687 0.910706 0.049969
v -0.279432 0.683030 0.050327
v -0.247630 0.455353 0.037495
v -0.210073 0.227677 0.018666
v -0.192302 0.000000 0.010319
v 0.014611 0.843351 0.340027
v 0.026553 0.683030 0.339127
v 0.016138 0.455353 0.288474
v -0.009241 0.227677 0.216919
v -0.025883 0.000000 0.182804
v 0.293893 1.003838 0.253397
v 0.305424 0.683030 0.254483
v 0.257149 0.455353 0.213916
v 0.179166 0.227677 0.155364
v 0.136235 0.000000 0.126428
v 0.273737 0.875593 -0.182097
v 0.278936 0.615888 -0.177731
v 0.237839 0.455353 -0.161997
v 0.174508 0.227677 -0.143383
v 0.144192 0.000000 -0.135390
v 0.017434 0.910706 -0.425423
v 0.018458 0.683030 -0.420348
v 0.013217 0.455353 -0.372855
v 0.003820 0.227677 -0.309799
v 0.000266 0.000000 -0.280905
v -0.301406 0.910706 -0.141098
v -0.295518 0.683030 -0.139193
v -0.261017 0.455353 -0.127652
v -0.217627 0.227677 -0.113065
v -0.196875 0.000000 -0.106116
v 0.193490 0.835211 -0.000369
v 0.203254 0.643634 0.002888
v 0.167551 0.455353 -0.005732
v 0.111352 0.227677 -0.019862
v 0.082837 0.000000 -0.027203
v -0.096763 0.910706 -0.231410
v -0.058126 0.683030 -0.198991
v -0.083730 0.455353 -0.205198
v -0.077838 0.227677 -0.176218
v -0.073993 0.000000 -0.162681
vt 0.000000 1.000000
vt 0.000000 0.750000
vt 0.000000 0.500000
vt 0.000000 0.250000
vt 0.000000 0.000000
vt 0.200000 1.000000
vt 0.200000 0.750000
vt 0.200000 0.500000
vt 0.200000 0.250000
vt 0.200000 0.000000
vt 0.400000 1.000000
vt 0.400000 0.750000
vt 0.400000 0.500000
vt 0.400000 0.250000
vt 0.400000 0.000000
vt 0.600000 1.000000
vt 0.600000 0.750000
vt 0.600000 0.500000
vt 0.600000 0.250000
vt 0.600000 0.000000
vt 0.800000 1.000000
vt 0.800000 0.750000
vt 0.800000 0.500000
vt 0.800000 0.250000
vt 0.800000 -0.000000
vt 1.000000 1.000000
vt 1.000000 0.750000
vt 1.000000 0.500000
vt 1.000000 0.250000
vt 1.000000 0.000000
vt 0.504222 1.000000
vt 0.504222 0.750000
vt 0.504222 0.500000
vt 0.504222 0.250000
vt 0.504222 0.000000
vt 0.894157 1.000000
vt 0.894157 0.750000
vt 0.894157 0.500000
vt 0.894157 0.250000
vt 0.894157 -0.000000
vn -0.691044 -0.036980 0.721866
vn -0.686970 -0.086716 0.721493
vn -0.288639 -0.105272 0.951633
vn -0.204433 -0.011546 0.978812
vn -0.683799 -0.144327 0.715254
vn -0.318356 -0.225830 0.920679
vn -0.696937 -0.118979 0.707194
vn -0.329510 -0.205024 0.921623
vn -0.708832 -0.067234 0.702166
vn -0.341006 -0.127787 0.931335
vn 0.887163 -0.087032 0.453175
vn 0.874909 0.036013 0.482947
vn 0.826071 -0.319341 0.464358
vn 0.848864 -0.308193 0.429474
vn 0.872917 -0.206186 0.442158
vn 0.990589 0.038475 -0.131352
vn 0.995967 -0.056082 -0.070034
vn 0.899859 -0.126850 -0.417328
vn 0.843712 0.005046 -0.536772
vn 0.977242 -0.204998 -0.054531
vn 0.886124 -0.253701 -0.387841
vn 0.982451 -0.185939 -0.014703
vn 0.914054 -0.216486 -0.342986
vn 0.991888 -0.126871 0.007812
vn 0.936008 -0.135026 -0.325048
vn 0.102963 -0.090141 -0.990592
vn 0.024412 -0.084690 -0.996108
vn 0.052118 -0.220949 -0.973892
vn 0.122123 -0.213972 -0.969176
vn 0.120909 -0.132401 -0.983794
vn -0.659491 -0.116848 -0.742575
vn -0.668599 -0.058445 -0.741323
vn -0.317556 -0.062146 -0.946201
vn -0.319868 -0.102279 -0.941925
vn -0.664274 -0.052497 -0.745643
vn -0.352997 -0.065916 -0.933299
vn -0.660665 -0.091346 -0.745102
vn -0.407551 -0.100805 -0.907602
vn -0.661291 -0.058857 -0.747817
vn -0.413900 -0.063215 -0.908125
s 1
g pPlane2
usemtl initialShadingGroup
f 1/1/1 2/2/2 7/7/3 6/6/4
f 2/2/2 3/3/5 8/8/6 7/7/3
f 3/3/5 4/4/7 9/9/8 8/8/6
f 4/4/7 5/5/9 10/10/10 9/9/8
f 6/6/4 7/7/3 12/12/11 11/11/12
f 7/7/3 8/8/6 13/13/13 12/12/11
f 8/8/6 9/9/8 14/14/14 13/13/13
f 9/9/8 10/10/10 15/15/15 14/14/14
f 31/31/16 32/32/17 17/17/18 16/16/19
f 32/32/17 33/33/20 18/18/21 17/17/18
f 33/33/20 34/34/22 19/19/23 18/18/21
f 34/34/22 35/35/24 20/20/25 19/19/23
f 16/16/19 17/17/18 22/22/26 21/21/27
f 17/17/18 18/18/21 23/23/28 22/22/26
f 18/18/21 19/19/23 24/24/29 23/23/28
f 19/19/23 20/20/25 25/25/30 24/24/29
f 36/36/31 37/37/32 27/27/33 26/26/34
f 37/37/32 38/38/35 28/28/36 27/27/33
f 38/38/35 39/39/37 29/29/38 28/28/36
f 39/39/37 40/40/39 30/30/40 29/29/38
f 11/11/12 12/12/11 32/32/17 31/31/16
f 12/12/11 13/13/13 33/33/20 32/32/17
f 13/13/13 14/14/14 34/34/22 33/33/20
f 14/14/14 15/15/15 35/35/24 34/34/22
f 21/21/27 22/22/26 37/37/32 36/36/31
f 22/22/26 23/23/28 38/38/35 37/37/32
f 23/23/28 24/24/29 39/39/37 38/38/35
f 24/24/29 25/25/30 40/40/39 39/39/37
