# This file uses centimeters as units for non-parametric coordinates.

mtllib Pot_1.mtl
g default
v 0.396300 0.000000 -0.190848
v 0.274248 0.000000 -0.343896
v 0.097878 0.000000 -0.428831
v -0.097878 0.000000 -0.428831
v -0.274248 0.000000 -0.343896
v -0.396299 0.000000 -0.190848
v -0.439859 0.000000 -0.000000
v -0.396299 0.000000 0.190848
v -0.274248 0.000000 0.343896
v -0.097878 0.000000 0.428831
v 0.097878 0.000000 0.428831
v 0.274248 0.000000 0.343896
v 0.396300 0.000000 0.190848
v 0.439859 0.000000 0.000000
v 0.687784 0.333333 -0.331219
v 0.475961 0.333333 -0.596836
v 0.169869 0.333333 -0.744243
v -0.169868 0.333333 -0.744243
v -0.475961 0.333333 -0.596836
v -0.687784 0.333333 -0.331219
v -0.763382 0.333333 -0.000000
v -0.687784 0.333333 0.331219
v -0.475961 0.333333 0.596836
v -0.169869 0.333333 0.744243
v 0.169868 0.333333 0.744243
v 0.475961 0.333333 0.596836
v 0.687784 0.333333 0.331219
v 0.763382 0.333333 0.000000
v 0.871370 0.666667 -0.419629
v 0.603006 0.666667 -0.756146
v 0.215211 0.666667 -0.942899
v -0.215210 0.666667 -0.942899
v -0.603006 0.666667 -0.756146
v -0.871369 0.666667 -0.419629
v -0.967146 0.666667 -0.000000
v -0.871370 0.666667 0.419629
v -0.603006 0.666667 0.756146
v -0.215210 0.666667 0.942899
v 0.215210 0.666667 0.942899
v 0.603006 0.666667 0.756146
v 0.871370 0.666667 0.419629
v 0.967146 0.666667 0.000000
v 0.900969 1.000000 -0.433883
v 0.623490 1.000000 -0.781831
v 0.222521 1.000000 -0.974928
v -0.222521 1.000000 -0.974928
v -0.623490 1.000000 -0.781832
v -0.900969 1.000000 -0.433884
v -0.999999 1.000000 -0.000000
v -0.900969 1.000000 0.433883
v -0.623490 1.000000 0.781831
v -0.222521 1.000000 0.974928
v 0.222521 1.000000 0.974928
v 0.623490 1.000000 0.781832
v 0.900969 1.000000 0.433884
v 1.000000 1.000000 0.000000
v 0.813740 1.333333 -0.391876
v 0.563126 1.333333 -0.706137
v 0.200977 1.333333 -0.880539
v -0.200977 1.333333 -0.880539
v -0.563125 1.333333 -0.706137
v -0.813740 1.333333 -0.391877
v -0.903183 1.333333 -0.000000
v -0.813740 1.333333 0.391877
v -0.563126 1.333333 0.706137
v -0.200977 1.333333 0.880539
v 0.200977 1.333333 0.880539
v 0.563126 1.333333 0.706137
v 0.813740 1.333333 0.391877
v 0.903184 1.333333 0.000000
v 0.721086 1.666667 -0.347257
v 0.499007 1.666667 -0.625735
v 0.178094 1.666667 -0.780279
v -0.178093 1.666667 -0.780279
v -0.499007 1.666667 -0.625735
v -0.721086 1.666667 -0.347257
v -0.800345 1.666667 -0.000000
v -0.721086 1.666667 0.347257
v -0.499007 1.666667 0.625735
v -0.178094 1.666667 0.780279
v 0.178093 1.666667 0.780279
v 0.499007 1.666667 0.625735
v 0.721086 1.666667 0.347257
v 0.800345 1.666667 0.000000
v 0.000000 0.000000 0.000000
v 0.714686 1.887176 -0.344174
v 0.494578 1.887176 -0.620181
v 0.176513 1.887176 -0.773353
v -0.176513 1.887176 -0.773353
v -0.494578 1.887176 -0.620181
v -0.714686 1.887176 -0.344175
v -0.793241 1.887176 -0.000000
v -0.714686 1.887176 0.344174
v -0.494578 1.887176 0.620181
v -0.176513 1.887176 0.773353
v 0.176513 1.887176 0.773353
v 0.494578 1.887176 0.620181
v 0.714686 1.887176 0.344175
v 0.793241 1.887176 0.000000
v 0.771137 1.959419 -0.371360
v 0.855900 1.959419 0.000000
v 0.771140 1.959419 0.371360
v 0.533643 1.959419 0.669167
v 0.190455 1.959419 0.834438
v -0.190455 1.959419 0.834438
v -0.533653 1.959419 0.669169
v -0.771136 1.959419 0.371360
v -0.855897 1.959419 -0.000000
v -0.771136 1.959419 -0.371360
v -0.533643 1.959419 -0.669167
v -0.190455 1.959419 -0.834438
v 0.190459 1.959419 -0.834438
v 0.533643 1.959419 -0.669167
v 0.734315 1.985849 -0.353627
v 0.508162 1.985849 -0.637215
v 0.181361 1.985849 -0.794594
v -0.181361 1.985849 -0.794594
v -0.508162 1.985849 -0.637215
v -0.734315 1.985849 -0.353628
v -0.815028 1.985849 -0.000000
v -0.734315 1.985849 0.353627
v -0.508162 1.985849 0.637215
v -0.181361 1.985849 0.794594
v 0.181361 1.985849 0.794594
v 0.508162 1.985849 0.637215
v 0.734315 1.985849 0.353628
v 0.815028 1.985849 0.000000
v 0.539002 1.536821 -0.259570
v 0.373002 1.536821 -0.467729
v 0.133123 1.536821 -0.583248
v -0.133122 1.536821 -0.583248
v -0.373001 1.536821 -0.467729
v -0.539002 1.536821 -0.259570
v -0.598247 1.536821 -0.000000
v -0.539002 1.536821 0.259570
v -0.373001 1.536821 0.467729
v -0.133122 1.536821 0.583248
v 0.133123 1.536821 0.583248
v 0.373001 1.536821 0.467729
v 0.539002 1.536821 0.259570
v 0.598248 1.536821 0.000000
v 0.697910 0.469975 -0.336095
v 0.482969 0.469975 -0.605623
v 0.000000 0.469975 -0.000000
v 0.172370 0.469975 -0.755200
v -0.172369 0.469975 -0.755199
v -0.482968 0.469975 -0.605624
v -0.697909 0.469975 -0.336096
v -0.774621 0.469975 -0.000000
v -0.697909 0.469975 0.336096
v -0.482968 0.469975 0.605622
v -0.172369 0.469975 0.755199
v 0.172369 0.469975 0.755200
v 0.482969 0.469975 0.605623
v 0.697910 0.469975 0.336095
v 0.774621 0.469975 0.000000
v 0.771137 1.979712 -0.371360
v 0.753469 1.993210 -0.362851
v 0.533643 1.979712 -0.669167
v 0.521417 1.993210 -0.653835
v 0.190457 1.979712 -0.834438
v 0.186092 1.993210 -0.815320
v -0.190455 1.979712 -0.834438
v -0.186091 1.993210 -0.815319
v -0.533643 1.979712 -0.669167
v -0.521416 1.993210 -0.653836
v -0.771136 1.979712 -0.371360
v -0.753468 1.993210 -0.362851
v -0.855897 1.979712 -0.000000
v -0.836287 1.993210 -0.000000
v -0.771136 1.979712 0.371360
v -0.753468 1.993210 0.362851
v -0.533648 1.979715 0.669168
v -0.521418 1.993211 0.653838
v -0.190455 1.979712 0.834438
v -0.186091 1.993210 0.815319
v 0.190455 1.979712 0.834438
v 0.186091 1.993210 0.815320
v 0.533643 1.979712 0.669167
v 0.521417 1.993210 0.653836
v 0.771138 1.979713 0.371360
v 0.753470 1.993210 0.362852
v 0.855898 1.979713 0.000000
v 0.836288 1.993210 0.000000
vt 0.236914 0.398863
vt 0.203475 0.414009
vt 0.177704 0.436480
vt 0.680278 0.433654
vt 0.648455 0.415172
vt 0.611643 0.401236
vt 0.571845 0.390692
vt 0.530128 0.383022
vt 0.487268 0.377769
vt 0.443779 0.374985
vt 0.400114 0.374598
vt 0.356753 0.376593
vt 0.314744 0.381148
vt 0.274534 0.388352
vt 0.195008 0.329456
vt 0.145497 0.352120
vt 0.783561 0.419122
vt 0.744390 0.380790
vt 0.698229 0.352897
vt 0.649589 0.332406
vt 0.600044 0.317382
vt 0.550060 0.306716
vt 0.499764 0.299729
vt 0.449192 0.296082
vt 0.398370 0.295553
vt 0.347427 0.298178
vt 0.296626 0.304135
vt 0.245737 0.314177
vt 0.168542 0.269903
vt 0.108892 0.293429
vt 0.843514 0.366548
vt 0.787512 0.327327
vt 0.731319 0.296894
vt 0.675465 0.273465
vt 0.619853 0.255893
vt 0.564332 0.243323
vt 0.508746 0.235173
vt 0.452997 0.231046
vt 0.397000 0.230637
vt 0.340716 0.233926
vt 0.284153 0.241041
vt 0.226868 0.252787
vt 0.152255 0.217222
vt 0.088518 0.238748
vt 0.878433 0.307639
vt 0.814194 0.275431
vt 0.753481 0.246083
vt 0.693909 0.221801
vt 0.634584 0.202904
vt 0.575195 0.189161
vt 0.515641 0.180242
vt 0.455886 0.175841
vt 0.395919 0.175555
vt 0.335718 0.179315
vt 0.275256 0.187240
vt 0.214238 0.199847
vt 0.140879 0.161244
vt 0.077104 0.179367
vt 0.896678 0.240821
vt 0.833014 0.217513
vt 0.771539 0.191223
vt 0.710138 0.167457
vt 0.648158 0.148069
vt 0.585513 0.133573
vt 0.522329 0.124110
vt 0.458820 0.119566
vt 0.395158 0.119377
vt 0.331488 0.123485
vt 0.267846 0.131849
vt 0.204336 0.144679
vt 0.132674 0.103636
vt 0.070756 0.118632
vt 0.906778 0.176532
vt 0.847416 0.157701
vt 0.786904 0.134209
vt 0.724667 0.111549
vt 0.660673 0.092301
vt 0.595162 0.077518
vt 0.528582 0.067780
vt 0.461512 0.062937
vt 0.394370 0.062855
vt 0.327554 0.067245
vt 0.261449 0.075833
vt 0.196313 0.088390
vt 0.273395 0.463354
vt 0.465726 0.865201
vt 0.126751 0.066889
vt 0.065376 0.080651
vt 0.916050 0.140021
vt 0.857714 0.120917
vt 0.797158 0.098029
vt 0.734299 0.075849
vt 0.668900 0.056474
vt 0.601369 0.041443
vt 0.532476 0.031560
vt 0.463030 0.026605
vt 0.393603 0.026588
vt 0.324693 0.031154
vt 0.256830 0.039844
vt 0.190681 0.052192
vt 0.123724 0.051264
vt 0.808407 0.812545
vt 0.823995 0.864934
vt 0.256584 0.567872
vt 0.305235 0.555987
vt 0.357668 0.545126
vt 0.412754 0.538710
vt 0.469297 0.538933
vt 0.525879 0.547210
vt 0.580889 0.564217
vt 0.633252 0.589683
vt 0.681004 0.623298
vt 0.723155 0.663769
vt 0.758599 0.709962
vt 0.786940 0.760194
vt 0.631088 0.897265
vt 0.628712 0.945589
vt 0.273651 0.787801
vt 0.320413 0.754681
vt 0.364244 0.731674
vt 0.405842 0.717533
vt 0.445302 0.711487
vt 0.482403 0.712919
vt 0.516742 0.721310
vt 0.547802 0.736223
vt 0.574980 0.757279
vt 0.597607 0.784150
vt 0.614973 0.816560
vt 0.626356 0.854298
vt 0.123019 0.047949
vt 0.122209 0.044146
vt 0.186420 0.029620
vt 0.060907 0.057918
vt 0.924846 0.118357
vt 0.865160 0.098823
vt 0.804328 0.075626
vt 0.741060 0.053573
vt 0.674529 0.033955
vt 0.605501 0.018654
vt 0.535014 0.008633
vt 0.463984 0.003623
vt 0.393035 0.003650
vt 0.322693 0.008383
vt 0.253533 0.017174
vt 0.187162 0.033417
vt 0.187810 0.036734
vt 0.254105 0.020982
vt 0.254605 0.024312
vt 0.323044 0.012209
vt 0.323349 0.015558
vt 0.393145 0.007501
vt 0.393238 0.010873
vt 0.463834 0.007486
vt 0.463702 0.010864
vt 0.534600 0.012482
vt 0.534233 0.015854
vt 0.604815 0.022481
vt 0.604210 0.025833
vt 0.673587 0.037738
vt 0.672756 0.041048
vt 0.739920 0.057314
vt 0.738915 0.060587
vt 0.803105 0.079367
vt 0.802043 0.082665
vt 0.863901 0.102555
vt 0.862801 0.105798
vt 0.000000 0.072869
vt 0.923249 0.125678
vt 0.061665 0.061748
vt 0.062322 0.065066
vt 0.121442 0.040582
vt 0.060200 0.054326
vt 0.000140 0.065072
vt 0.866366 0.095307
vt 0.805500 0.072122
vt 0.742152 0.050067
vt 0.675429 0.030411
vt 0.606156 0.015066
vt 0.535413 0.005023
vt 0.464133 0.000000
vt 0.392939 0.000037
vt 0.322369 0.004795
vt 0.252997 0.013602
vt 0.185720 0.026061
vt 0.619238 1.000000
vt 0.835738 0.915133
vt 0.924058 0.905336
vt 0.220824 0.485458
vt 0.865384 0.714361
vt 0.892789 0.776923
vt 0.829775 0.654697
vt 0.785862 0.599861
vt 0.735270 0.552819
vt 0.677734 0.512782
vt 0.614834 0.481764
vt 0.548273 0.460696
vt 0.480201 0.449866
vt 0.412730 0.448307
vt 0.347171 0.454262
vt 0.283560 0.466087
vt 0.912441 0.840820
vt 0.000011 0.068839
vt 0.925235 0.114546
vt 0.924322 0.122376
vt 0.000617 0.076249
vt 0.005921 0.091540
vt 0.702992 0.458669
vt 0.011042 0.128165
vt 0.012317 0.193394
vt 0.021244 0.261442
vt 0.047740 0.324653
vt 0.100554 0.385993
vt 0.248923 0.472528
vt 0.237342 0.479857
vt 0.639449 0.493718
vt 0.629256 0.486183
vt 0.605670 0.475295
vt 0.574477 0.465562
vt 0.539069 0.457825
vt 0.499937 0.452376
vt 0.460961 0.448868
vt 0.421411 0.447499
vt 0.381884 0.448275
vt 0.343080 0.451152
vt 0.305973 0.455896
vn 0.646524 -0.696468 -0.311350
vn 0.447409 -0.696468 -0.561033
vn 0.500314 -0.596731 -0.627374
vn 0.722975 -0.596731 -0.348166
vn 0.159678 -0.696468 -0.699596
vn 0.178560 -0.596731 -0.782322
vn -0.159678 -0.696468 -0.699596
vn -0.178560 -0.596731 -0.782322
vn -0.447409 -0.696468 -0.561033
vn -0.500314 -0.596731 -0.627374
vn -0.646524 -0.696468 -0.311350
vn -0.722975 -0.596731 -0.348166
vn -0.717588 -0.696468 -0.000000
vn -0.802441 -0.596731 -0.000000
vn -0.646524 -0.696468 0.311349
vn -0.722975 -0.596731 0.348166
vn -0.447409 -0.696468 0.561033
vn -0.500314 -0.596731 0.627374
vn -0.159678 -0.696468 0.699596
vn -0.178560 -0.596731 0.782322
vn 0.159678 -0.696468 0.699596
vn 0.178560 -0.596731 0.782322
vn 0.447409 -0.696468 0.561033
vn 0.500314 -0.596731 0.627374
vn 0.646524 -0.696468 0.311350
vn 0.722975 -0.596731 0.348166
vn 0.717588 -0.696468 0.000000
vn 0.802442 -0.596731 0.000000
vn 0.592615 -0.310787 -0.743115
vn 0.856353 -0.310787 -0.412397
vn 0.211502 -0.310787 -0.926649
vn -0.211502 -0.310787 -0.926649
vn -0.592614 -0.310787 -0.743115
vn -0.856353 -0.310787 -0.412397
vn -0.950480 -0.310787 -0.000000
vn -0.856353 -0.310787 0.412397
vn -0.592614 -0.310787 0.743115
vn -0.211502 -0.310787 0.926649
vn 0.211502 -0.310787 0.926649
vn 0.592614 -0.310787 0.743115
vn 0.856353 -0.310787 0.412397
vn 0.950480 -0.310787 0.000000
vn 0.620971 0.089806 -0.778672
vn 0.897328 0.089805 -0.432130
vn 0.221622 0.089806 -0.970988
vn -0.221622 0.089806 -0.970988
vn -0.620970 0.089806 -0.778672
vn -0.897328 0.089805 -0.432131
vn -0.995959 0.089805 -0.000000
vn -0.897329 0.089805 0.432130
vn -0.620971 0.089806 0.778672
vn -0.221622 0.089806 0.970988
vn 0.221622 0.089806 0.970989
vn 0.620970 0.089806 0.778672
vn 0.897328 0.089805 0.432130
vn 0.995959 0.089805 0.000000
vn 0.597422 0.286131 -0.749143
vn 0.863300 0.286131 -0.415743
vn 0.213218 0.286132 -0.934166
vn -0.213217 0.286131 -0.934167
vn -0.597422 0.286131 -0.749143
vn -0.863300 0.286131 -0.415743
vn -0.958191 0.286131 -0.000000
vn -0.863300 0.286131 0.415743
vn -0.597422 0.286131 0.749143
vn -0.213218 0.286131 0.934167
vn 0.213217 0.286132 0.934167
vn 0.597422 0.286131 0.749143
vn 0.863300 0.286131 0.415743
vn 0.958191 0.286131 0.000000
vn 0.610686 0.201619 -0.765776
vn 0.882467 0.201620 -0.424973
vn 0.217951 0.201619 -0.954907
vn -0.217951 0.201619 -0.954907
vn -0.610686 0.201619 -0.765776
vn -0.882466 0.201619 -0.424974
vn -0.979464 0.201620 -0.000000
vn -0.882467 0.201619 0.424973
vn -0.610686 0.201619 0.765776
vn -0.217951 0.201619 0.954907
vn 0.217951 0.201619 0.954907
vn 0.610686 0.201619 0.765776
vn 0.882466 0.201619 0.424974
vn 0.979464 0.201620 0.000000
vn 0.881699 -0.205714 -0.424604
vn 0.610155 -0.205712 -0.765110
vn 0.521260 -0.548678 -0.653636
vn 0.753240 -0.548679 -0.362742
vn 0.217761 -0.205713 -0.954077
vn 0.186041 -0.548678 -0.815071
vn -0.217762 -0.205712 -0.954077
vn -0.186034 -0.548676 -0.815074
vn -0.610155 -0.205711 -0.765110
vn -0.521259 -0.548676 -0.653639
vn -0.881700 -0.205711 -0.424604
vn -0.753242 -0.548676 -0.362742
vn -0.978613 -0.205711 -0.000000
vn -0.836035 -0.548676 -0.000000
vn -0.881699 -0.205718 0.424602
vn -0.753242 -0.548679 0.362738
vn -0.610151 -0.205726 0.765109
vn -0.521266 -0.548681 0.653629
vn -0.217761 -0.205717 0.954076
vn -0.186035 -0.548677 0.815073
vn 0.217762 -0.205711 0.954077
vn 0.186035 -0.548677 0.815074
vn 0.610154 -0.205714 0.765110
vn 0.521258 -0.548678 0.653638
vn 0.881698 -0.205720 0.424604
vn 0.753239 -0.548681 0.362739
vn 0.978611 -0.205719 -0.000000
vn 0.836032 -0.548681 -0.000001
vn 0.000000 -1.000000 0.000000
vn 0.000000 -1.000000 0.000000
vn 0.000000 -1.000000 0.000000
vn 0.000000 -1.000000 0.000000
vn 0.000000 -1.000000 0.000000
vn 0.000000 -1.000000 0.000000
vn 0.000000 -1.000000 0.000000
vn 0.000000 -1.000000 0.000000
vn 0.000000 -1.000000 0.000000
vn 0.000000 -1.000000 0.000000
vn 0.000000 -1.000000 0.000000
vn 0.000000 -1.000000 0.000000
vn 0.000000 -1.000000 0.000000
vn 0.000000 -1.000000 0.000000
vn 0.000000 -1.000000 0.000000
vn -0.884455 0.190584 0.425931
vn -0.612062 0.190584 0.767501
vn -0.000000 1.000000 0.000000
vn -0.218442 0.190583 0.957059
vn 0.218442 0.190584 0.957059
vn 0.612061 0.190583 0.767502
vn 0.884455 0.190584 0.425931
vn 0.981671 0.190584 0.000000
vn 0.884455 0.190583 -0.425931
vn 0.612062 0.190584 -0.767501
vn 0.218443 0.190584 -0.957058
vn -0.218442 0.190583 -0.957059
vn -0.612062 0.190584 -0.767501
vn -0.884455 0.190584 -0.425931
vn -0.981671 0.190583 -0.000000
vn -0.793682 0.473264 0.382217
vn -0.549245 0.473264 0.688732
vn -0.623093 0.035671 0.781334
vn -0.900396 0.035671 0.433608
vn -0.196023 0.473264 0.858834
vn -0.222379 0.035671 0.974308
vn 0.196023 0.473264 0.858834
vn 0.222379 0.035671 0.974308
vn 0.549245 0.473264 0.688732
vn 0.623092 0.035671 0.781335
vn 0.793682 0.473264 0.382217
vn 0.900396 0.035671 0.433607
vn 0.880921 0.473264 0.000000
vn 0.999364 0.035671 0.000000
vn 0.793682 0.473265 -0.382217
vn 0.900396 0.035671 -0.433607
vn 0.549244 0.473266 -0.688730
vn 0.623093 0.035672 -0.781334
vn 0.196023 0.473265 -0.858833
vn 0.222380 0.035672 -0.974307
vn -0.196023 0.473264 -0.858834
vn -0.222379 0.035671 -0.974308
vn -0.549245 0.473264 -0.688732
vn -0.623093 0.035671 -0.781334
vn -0.793682 0.473265 -0.382217
vn -0.900395 0.035671 -0.433608
vn -0.880920 0.473265 -0.000000
vn -0.999364 0.035671 -0.000000
vn 0.794903 0.470731 -0.382807
vn 0.195667 0.976133 -0.094231
vn 0.217162 0.976136 -0.000002
vn 0.882268 0.470747 -0.000002
vn 0.550092 0.470729 -0.689792
vn 0.135409 0.976132 -0.169795
vn 0.196323 0.470725 -0.860160
vn 0.048323 0.976133 -0.211729
vn -0.196325 0.470720 -0.860162
vn -0.048328 0.976132 -0.211732
vn -0.550092 0.470723 -0.689796
vn -0.135410 0.976131 -0.169800
vn -0.794908 0.470723 -0.382807
vn -0.195674 0.976131 -0.094231
vn -0.882280 0.470724 -0.000000
vn -0.217181 0.976131 0.000001
vn -0.794896 0.470753 0.382795
vn -0.195654 0.976137 0.094213
vn -0.550078 0.470760 0.689782
vn -0.135378 0.976141 0.169767
vn -0.196323 0.470738 0.860153
vn -0.048315 0.976137 0.211713
vn 0.196326 0.470724 0.860160
vn 0.048327 0.976132 0.211735
vn 0.550088 0.470730 0.689795
vn 0.135404 0.976133 0.169796
vn 0.794895 0.470746 0.382806
vn 0.195655 0.976136 0.094227
s 1
g Pot_1
usemtl initialShadingGroup
f 1/1/1 2/2/2 16/16/3 15/15/4
f 2/2/2 3/3/5 17/212/6 16/16/3
f 3/207/5 4/4/7 18/18/8 17/17/6
f 4/4/7 5/5/9 19/19/10 18/18/8
f 5/5/9 6/6/11 20/20/12 19/19/10
f 6/6/11 7/7/13 21/21/14 20/20/12
f 7/7/13 8/8/15 22/22/16 21/21/14
f 8/8/15 9/9/17 23/23/18 22/22/16
f 9/9/17 10/10/19 24/24/20 23/23/18
f 10/10/19 11/11/21 25/25/22 24/24/20
f 11/11/21 12/12/23 26/26/24 25/25/22
f 12/12/23 13/13/25 27/27/26 26/26/24
f 13/13/25 14/14/27 28/28/28 27/27/26
f 14/14/27 1/1/1 15/15/4 28/28/28
f 15/15/4 16/16/3 30/30/29 29/29/30
f 16/16/3 17/212/6 31/211/31 30/30/29
f 17/17/6 18/18/8 32/32/32 31/31/31
f 18/18/8 19/19/10 33/33/33 32/32/32
f 19/19/10 20/20/12 34/34/34 33/33/33
f 20/20/12 21/21/14 35/35/35 34/34/34
f 21/21/14 22/22/16 36/36/36 35/35/35
f 22/22/16 23/23/18 37/37/37 36/36/36
f 23/23/18 24/24/20 38/38/38 37/37/37
f 24/24/20 25/25/22 39/39/39 38/38/38
f 25/25/22 26/26/24 40/40/40 39/39/39
f 26/26/24 27/27/26 41/41/41 40/40/40
f 27/27/26 28/28/28 42/42/42 41/41/41
f 28/28/28 15/15/4 29/29/30 42/42/42
f 29/29/30 30/30/29 44/44/43 43/43/44
f 30/30/29 31/211/31 45/210/45 44/44/43
f 31/31/31 32/32/32 46/46/46 45/45/45
f 32/32/32 33/33/33 47/47/47 46/46/46
f 33/33/33 34/34/34 48/48/48 47/47/47
f 34/34/34 35/35/35 49/49/49 48/48/48
f 35/35/35 36/36/36 50/50/50 49/49/49
f 36/36/36 37/37/37 51/51/51 50/50/50
f 37/37/37 38/38/38 52/52/52 51/51/51
f 38/38/38 39/39/39 53/53/53 52/52/52
f 39/39/39 40/40/40 54/54/54 53/53/53
f 40/40/40 41/41/41 55/55/55 54/54/54
f 41/41/41 42/42/42 56/56/56 55/55/55
f 42/42/42 29/29/30 43/43/44 56/56/56
f 43/43/44 44/44/43 58/58/57 57/57/58
f 44/44/43 45/210/45 59/209/59 58/58/57
f 45/45/45 46/46/46 60/60/60 59/59/59
f 46/46/46 47/47/47 61/61/61 60/60/60
f 47/47/47 48/48/48 62/62/62 61/61/61
f 48/48/48 49/49/49 63/63/63 62/62/62
f 49/49/49 50/50/50 64/64/64 63/63/63
f 50/50/50 51/51/51 65/65/65 64/64/64
f 51/51/51 52/52/52 66/66/66 65/65/65
f 52/52/52 53/53/53 67/67/67 66/66/66
f 53/53/53 54/54/54 68/68/68 67/67/67
f 54/54/54 55/55/55 69/69/69 68/68/68
f 55/55/55 56/56/56 70/70/70 69/69/69
f 56/56/56 43/43/44 57/57/58 70/70/70
f 57/57/58 58/58/57 72/72/71 71/71/72
f 58/58/57 59/209/59 73/208/73 72/72/71
f 59/59/59 60/60/60 74/74/74 73/73/73
f 60/60/60 61/61/61 75/75/75 74/74/74
f 61/61/61 62/62/62 76/76/76 75/75/75
f 62/62/62 63/63/63 77/77/77 76/76/76
f 63/63/63 64/64/64 78/78/78 77/77/77
f 64/64/64 65/65/65 79/79/79 78/78/78
f 65/65/65 66/66/66 80/80/80 79/79/79
f 66/66/66 67/67/67 81/81/81 80/80/80
f 67/67/67 68/68/68 82/82/82 81/81/81
f 68/68/68 69/69/69 83/83/83 82/82/82
f 69/69/69 70/70/70 84/84/84 83/83/83
f 70/70/70 57/57/58 71/71/72 84/84/84
f 86/87/85 87/88/86 113/170/87 100/101/88
f 87/88/86 88/206/89 112/205/90 113/170/87
f 88/89/89 89/90/91 111/166/92 112/168/90
f 89/90/91 90/91/93 110/164/94 111/166/92
f 90/91/93 91/92/95 109/162/96 110/164/94
f 91/92/95 92/93/97 108/160/98 109/162/96
f 92/93/97 93/94/99 107/158/100 108/160/98
f 93/94/99 94/95/101 106/156/102 107/158/100
f 94/95/101 95/96/103 105/154/104 106/156/102
f 95/96/103 96/97/105 104/152/106 105/154/104
f 96/97/105 97/98/107 103/150/108 104/152/106
f 97/98/107 98/99/109 102/148/110 103/150/108
f 98/99/109 99/100/111 101/146/112 102/148/110
f 99/100/111 86/87/85 100/101/88 101/146/112
s 2
f 2/2/113 1/1/114 85/213/115
f 3/3/116 2/2/113 85/214/115
f 4/4/117 3/207/116 85/215/115
f 5/5/118 4/4/117 85/216/115
f 6/6/119 5/5/118 85/217/115
f 7/7/120 6/6/119 85/218/115
f 8/8/121 7/7/120 85/219/115
f 9/9/122 8/8/121 85/220/115
f 10/10/123 9/9/122 85/221/115
f 11/11/124 10/10/123 85/222/115
f 12/12/125 11/11/124 85/223/115
f 13/13/126 12/12/125 85/224/115
f 14/14/127 13/13/126 85/225/115
f 1/1/114 14/14/127 85/85/115
s 1
f 142/116/128 143/117/129 144/86/130
f 143/117/129 145/185/131 144/86/130
f 145/118/131 146/119/132 144/86/130
f 146/119/132 147/120/133 144/86/130
f 147/120/133 148/121/134 144/86/130
f 148/121/134 149/122/135 144/86/130
f 149/122/135 150/123/136 144/86/130
f 150/123/136 151/124/137 144/86/130
f 151/124/137 152/125/138 144/86/130
f 152/125/138 153/126/139 144/86/130
f 153/126/139 154/127/140 144/86/130
f 154/127/140 155/128/141 144/86/130
f 155/128/141 156/129/142 144/86/130
f 156/129/142 142/116/128 144/86/130
f 71/71/72 72/72/71 87/88/86 86/87/85
f 72/72/71 73/208/73 88/206/89 87/88/86
f 73/73/73 74/74/74 89/90/91 88/89/89
f 74/74/74 75/75/75 90/91/93 89/90/91
f 75/75/75 76/76/76 91/92/95 90/91/93
f 76/76/76 77/77/77 92/93/97 91/92/95
f 77/77/77 78/78/78 93/94/99 92/93/97
f 78/78/78 79/79/79 94/95/101 93/94/99
f 79/79/79 80/80/80 95/96/103 94/95/101
f 80/80/80 81/81/81 96/97/105 95/96/103
f 81/81/81 82/82/82 97/98/107 96/97/105
f 82/82/82 83/83/83 98/99/109 97/98/107
f 83/83/83 84/84/84 99/100/111 98/99/109
f 84/84/84 71/71/72 86/87/85 99/100/111
f 114/190/143 115/201/144 129/103/145 128/102/146
f 115/201/144 116/187/147 130/186/148 129/103/145
f 116/188/147 117/200/149 131/105/150 130/104/148
f 117/200/149 118/199/151 132/106/152 131/105/150
f 118/199/151 119/198/153 133/107/154 132/106/152
f 119/198/153 120/197/155 134/108/156 133/107/154
f 120/197/155 121/196/157 135/109/158 134/108/156
f 121/196/157 122/195/159 136/110/160 135/109/158
f 122/195/159 123/194/161 137/111/162 136/110/160
f 123/194/161 124/193/163 138/112/164 137/111/162
f 124/193/163 125/192/165 139/113/166 138/112/164
f 125/192/165 126/191/167 140/114/168 139/113/166
f 126/191/167 127/189/169 141/115/170 140/114/168
f 127/189/169 114/190/143 128/102/146 141/115/170
f 128/102/146 129/103/145 143/117/129 142/116/128
f 129/103/145 130/186/148 145/185/131 143/117/129
f 130/104/148 131/105/150 146/119/132 145/118/131
f 131/105/150 132/106/152 147/120/133 146/119/132
f 132/106/152 133/107/154 148/121/134 147/120/133
f 133/107/154 134/108/156 149/122/135 148/121/134
f 134/108/156 135/109/158 150/123/136 149/122/135
f 135/109/158 136/110/160 151/124/137 150/123/136
f 136/110/160 137/111/162 152/125/138 151/124/137
f 137/111/162 138/112/164 153/126/139 152/125/138
f 138/112/164 139/113/166 154/127/140 153/126/139
f 139/113/166 140/114/168 155/128/141 154/127/140
f 140/114/168 141/115/170 156/129/142 155/128/141
f 141/115/170 128/102/146 142/116/128 156/129/142
f 157/130/171 158/131/172 184/132/173 183/145/174
f 158/131/172 157/130/171 159/169/175 160/133/176
f 160/133/176 159/169/175 161/167/177 162/202/178
f 162/134/178 161/204/177 163/165/179 164/135/180
f 164/135/180 163/165/179 165/163/181 166/136/182
f 166/136/182 165/163/181 167/161/183 168/137/184
f 168/137/184 167/161/183 169/159/185 170/138/186
f 170/138/186 169/159/185 171/157/187 172/139/188
f 172/139/188 171/157/187 173/155/189 174/140/190
f 174/140/190 173/155/189 175/153/191 176/141/192
f 176/141/192 175/153/191 177/151/193 178/142/194
f 178/142/194 177/151/193 179/149/195 180/143/196
f 180/143/196 179/149/195 181/147/197 182/144/198
f 182/144/198 181/147/197 183/145/174 184/132/173
f 101/146/112 100/101/88 157/130/171 183/145/174
f 102/148/110 101/146/112 183/145/174 181/147/197
f 103/150/108 102/148/110 181/147/197 179/149/195
f 104/152/106 103/150/108 179/149/195 177/151/193
f 105/154/104 104/152/106 177/151/193 175/153/191
f 106/156/102 105/154/104 175/153/191 173/155/189
f 107/158/100 106/156/102 173/155/189 171/157/187
f 108/160/98 107/158/100 171/157/187 169/159/185
f 109/162/96 108/160/98 169/159/185 167/161/183
f 110/164/94 109/162/96 167/161/183 165/163/181
f 111/166/92 110/164/94 165/163/181 163/165/179
f 112/168/90 111/166/92 163/165/179 161/204/177
f 113/170/87 112/205/90 161/167/177 159/169/175
f 100/101/88 113/170/87 159/169/175 157/130/171
f 158/131/172 160/133/176 115/172/144 114/171/143
f 160/133/176 162/202/178 116/173/147 115/172/144
f 162/134/178 164/135/180 117/174/149 116/203/147
f 164/135/180 166/136/182 118/175/151 117/174/149
f 166/136/182 168/137/184 119/176/153 118/175/151
f 168/137/184 170/138/186 120/177/155 119/176/153
f 170/138/186 172/139/188 121/178/157 120/177/155
f 172/139/188 174/140/190 122/179/159 121/178/157
f 174/140/190 176/141/192 123/180/161 122/179/159
f 176/141/192 178/142/194 124/181/163 123/180/161
f 178/142/194 180/143/196 125/182/165 124/181/163
f 180/143/196 182/144/198 126/183/167 125/182/165
f 182/144/198 184/132/173 127/184/169 126/183/167
f 184/132/173 158/131/172 114/171/143 127/184/169
